<?xml version="1.0" standalone="no"?>
<!DOCTYPE svg PUBLIC "-//W3C//DTD SVG 20010904//EN"
 "http://www.w3.org/TR/2001/REC-SVG-20010904/DTD/svg10.dtd">
<svg version="1.0" xmlns="http://www.w3.org/2000/svg"
 width="1199.000000pt" height="1200.000000pt" viewBox="0 0 1199.000000 1200.000000"
 preserveAspectRatio="xMidYMid meet">

<g transform="translate(0.000000,1200.000000) scale(0.100000,-0.100000)"
fill="#000000" stroke="none">
<path d="M0 6000 l0 -6000 5995 0 5995 0 0 6000 0 6000 -5995 0 -5995 0 0
-6000z m5217 4200 c59 0 168 0 242 0 73 -1 136 -1 140 -2 3 0 8 0 11 1 13 4
4012 2 4016 -2 3 -2 5 -969 5 -2148 -1 -4154 -1 -4416 -4 -4804 l-2 -230 -65
-2 c-47 -1 -2703 -3 -2845 -2 -18 0 -1332 1 -1380 1 -11 0 -294 0 -630 -1
-572 0 -1269 -2 -1325 -2 -287 -2 -950 5 -951 9 -6 29 -4 652 1 652 4 0 4 19
0 42 -4 24 -7 1492 -6 3263 l1 3220 1320 3 c726 1 1325 4 1330 6 6 3 15 3 22
1 7 -2 61 -4 120 -5z m1284 -7777 c0 -16 0 -79 -1 -140 -1 -104 0 -113 17
-113 11 0 23 4 29 10 5 5 30 13 54 16 41 5 49 3 92 -33 50 -39 61 -62 31 -64
-16 0 -16 -1 1 -8 11 -4 21 -16 24 -27 9 -40 8 -250 -1 -261 -5 -7 -25 -13
-43 -13 l-34 0 0 135 c0 78 -5 144 -11 159 -20 44 -93 49 -133 10 -28 -29 -28
-28 -26 -201 l1 -103 -40 0 -41 0 -1 58 c-2 190 3 567 8 575 6 10 42 25 61 26
6 1 12 -11 13 -26z m1878 11 c4 -3 3 -408 0 -432 -1 -4 -1 -33 0 -65 1 -50 4
-60 22 -64 16 -5 19 -12 17 -42 -3 -34 -5 -36 -44 -39 -31 -2 -45 2 -59 18
-19 20 -20 39 -19 319 0 163 3 302 7 308 7 11 63 8 76 -3z m-2240 -21 c36 -21
40 -33 9 -33 -12 0 -19 -2 -16 -5 9 -9 48 -14 48 -7 0 4 17 7 38 7 24 0 36 -4
35 -12 -2 -7 0 -12 5 -12 41 7 41 -14 0 -38 -31 -18 -33 -18 -72 2 -53 26
-156 27 -206 3 -100 -48 -150 -179 -114 -298 23 -75 120 -166 186 -174 18 -3
33 -5 33 -6 0 -1 12 -3 27 -4 28 -2 33 14 8 26 -10 4 -7 7 11 7 14 1 43 14 65
30 l39 29 33 -28 33 -28 -35 -29 c-89 -73 -250 -85 -343 -25 -50 33 -96 78
-126 124 -17 27 -48 153 -40 162 2 2 6 28 8 57 2 29 8 55 12 58 4 3 9 13 11
21 2 8 10 22 18 31 8 8 14 18 14 22 0 12 71 77 84 77 8 0 17 7 20 16 5 13 15
15 50 10 33 -5 45 -3 49 8 5 13 27 21 69 25 9 0 30 -7 47 -16z m-3453 -8 c-4
-11 2 -15 25 -15 18 0 28 4 24 10 -3 6 1 10 9 10 9 0 13 -6 10 -14 -3 -9 6
-15 27 -20 18 -3 34 -4 37 -1 3 3 -1 5 -9 5 -11 0 -11 2 1 10 12 8 9 10 -12
10 -16 0 -28 5 -28 10 0 17 37 11 95 -15 32 -14 54 -29 50 -35 -3 -6 3 -10 16
-10 25 0 59 -26 59 -46 0 -8 -6 -11 -15 -8 -8 4 -15 2 -15 -4 0 -5 15 -13 34
-16 26 -5 36 -14 49 -44 27 -61 26 -85 -3 -93 l-25 -6 28 -8 c29 -8 29 -8 22
-64 -7 -61 -40 -140 -61 -148 -8 -3 -14 -11 -14 -18 0 -19 -89 -84 -134 -97
-81 -25 -292 -6 -247 21 9 6 4 9 -14 9 -29 0 -92 54 -127 111 -17 27 -19 35
-7 42 11 7 11 9 -3 9 -12 0 -19 14 -26 53 -12 66 -14 107 -4 107 4 0 7 14 8
30 1 37 8 45 31 36 17 -7 17 -8 2 -20 -14 -9 -15 -16 -5 -38 9 -22 13 -24 23
-13 10 10 9 14 -2 19 -21 8 -7 36 19 37 20 1 20 2 1 6 -33 9 -55 60 -29 70 8
3 14 10 14 17 0 13 40 51 87 84 28 20 33 21 46 7 20 -19 33 -20 17 0 -10 12
-8 16 11 24 34 14 42 13 35 -4z m2326 -11 c17 -11 7 -53 -18 -73 -33 -26 -42
-26 -71 1 -25 24 -30 57 -10 77 11 12 77 9 99 -5z m4095 -114 c1 -36 2 -71 2
-77 1 -7 14 -13 30 -13 22 0 30 -5 33 -23 6 -31 -1 -47 -20 -47 -40 -1 -45
-15 -46 -129 -1 -95 1 -112 15 -116 19 -6 29 -36 22 -64 -4 -14 -14 -19 -44
-19 -31 -1 -42 5 -57 26 -17 23 -19 44 -18 147 2 142 0 153 -28 157 -17 2 -21
10 -21 38 0 29 3 34 19 32 27 -5 36 16 30 74 -5 46 -3 54 18 68 13 9 32 15 43
14 17 -3 20 -11 22 -68z m-5707 -150 c-6 -12 -19 -20 -28 -19 -22 3 -68 -16
-79 -33 -4 -7 -8 -26 -9 -43 -5 -133 -5 -135 -33 -129 l-26 5 28 -16 c30 -17
29 -17 21 -38 -3 -9 -13 -13 -25 -10 -10 3 -19 0 -19 -6 0 -6 12 -11 26 -11
19 0 25 -5 22 -17 -4 -24 -56 -30 -64 -8 -4 8 -7 75 -9 148 -3 169 -2 167 -20
167 -10 0 -15 10 -15 28 0 25 3 27 40 28 31 1 38 -1 30 -11 -16 -19 41 -27 61
-9 8 8 29 14 45 15 25 0 26 2 9 9 -17 6 -14 8 15 11 30 3 35 1 38 -18 2 -12
-2 -31 -8 -43z m312 50 c49 -23 61 -24 88 -8 16 11 22 9 34 -7 21 -28 20 -45
-4 -45 -16 0 -20 -7 -20 -35 0 -19 -4 -35 -10 -35 -5 0 -10 -5 -10 -11 0 -8 4
-8 14 0 9 8 16 8 20 2 4 -5 2 -12 -4 -16 -6 -4 -8 -10 -5 -15 8 -12 -16 -62
-39 -83 -44 -40 -85 -51 -140 -40 -59 13 -82 3 -65 -28 5 -11 7 -24 4 -29 -4
-6 15 -11 47 -12 29 -1 75 -2 101 -3 53 -2 82 -20 57 -35 -13 -8 -12 -10 3
-10 9 0 17 5 17 12 0 6 3 9 6 6 3 -4 0 -16 -6 -28 -10 -18 -9 -24 1 -31 8 -5
20 -7 28 -4 11 4 13 -4 8 -41 -9 -86 -79 -128 -192 -117 -99 10 -136 38 -149
116 -7 37 8 54 20 22 4 -8 16 -15 28 -16 11 0 15 -3 8 -6 -10 -4 -10 -8 0 -21
10 -12 10 -14 1 -8 -15 9 -17 -3 -3 -24 8 -11 12 -12 18 -3 8 13 52 6 52 -8 0
-5 5 -9 10 -9 6 0 10 7 10 16 0 17 22 16 64 -1 13 -6 17 -5 13 2 -6 10 27 27
46 24 13 -2 7 76 -7 88 -23 19 -154 20 -180 1 -29 -22 -70 -24 -62 -4 14 36
18 64 9 64 -6 0 -15 11 -21 25 -12 25 -6 51 20 87 10 13 10 24 0 51 -7 18 -12
54 -12 80 0 42 3 47 23 48 16 1 18 2 5 6 -24 6 -23 11 12 44 30 29 54 37 64
20 6 -10 46 -3 44 8 -1 14 2 31 7 31 3 0 25 -9 47 -20z m458 5 c7 -8 20 -15
29 -15 14 0 14 2 1 10 -21 14 -3 12 23 -2 21 -11 21 -11 2 -19 -17 -7 -16 -8
7 -8 51 -2 57 -19 53 -152 -3 -113 -2 -122 16 -126 10 -3 19 -9 19 -13 0 -4 3
-22 6 -39 6 -29 5 -31 -23 -31 -17 0 -42 9 -56 20 -14 11 -28 20 -31 20 -4 0
-16 -9 -28 -20 -17 -16 -36 -20 -87 -20 -107 0 -166 49 -156 128 5 42 30 82
51 82 6 0 17 7 24 15 7 8 24 15 39 14 14 0 55 0 90 1 l63 2 -5 35 c-8 47 -17
55 -72 60 -32 4 -53 0 -71 -12 -46 -30 -93 9 -65 54 6 9 30 14 75 14 36 0 66
4 66 9 0 13 17 9 30 -7z m510 0 c7 -8 20 -14 29 -13 9 2 15 -3 14 -9 -2 -7 4
-13 12 -13 9 0 20 -12 25 -26 13 -33 13 -34 -7 -35 -15 0 -14 -2 3 -9 26 -10
30 -30 28 -140 -2 -160 1 -150 -42 -150 l-37 0 -1 136 c-2 118 -5 140 -21 163
-27 36 -87 40 -126 9 -27 -23 -27 -24 -30 -163 l-2 -140 -37 -3 -36 -3 -1 150
c-1 159 -5 181 -27 181 -9 0 -14 12 -14 35 0 33 2 35 34 35 18 0 39 -7 47 -16
9 -11 22 -14 42 -10 18 4 36 1 45 -6 13 -11 14 -9 7 11 -7 22 -5 23 19 17 15
-4 26 -2 26 4 0 15 36 12 50 -5z m723 -9 c20 -10 39 -22 42 -25 2 -4 -7 -20
-19 -36 -22 -28 -25 -28 -47 -14 -42 27 -69 29 -114 7 -37 -18 -46 -28 -57
-66 -8 -27 -21 -47 -33 -52 -19 -7 -19 -7 1 -14 25 -8 31 -56 7 -56 -11 0 -11
-3 -1 -14 7 -8 15 -10 16 -5 2 5 8 9 13 9 4 0 6 -6 4 -12 -2 -7 8 -22 22 -32
18 -13 28 -16 31 -8 2 8 11 8 30 1 27 -10 79 4 94 25 4 6 14 4 26 -7 10 -9 24
-17 31 -17 21 0 7 -23 -27 -46 -90 -61 -217 -29 -279 70 -23 35 -27 52 -26
110 1 51 5 73 17 81 9 7 13 15 10 18 -3 3 12 23 33 44 32 32 50 41 99 49 73
13 80 12 127 -10z m1687 14 c5 8 13 9 26 2 11 -6 31 -13 45 -16 56 -12 112
-94 113 -166 1 -107 -36 -172 -121 -210 -55 -24 -94 -25 -154 -5 -106 37 -158
140 -130 256 19 79 140 164 195 136 12 -6 21 -5 26 3z m495 0 c4 -6 11 -8 16
-5 5 4 9 1 9 -6 0 -6 8 -9 20 -6 11 3 20 1 20 -4 0 -5 9 -9 20 -9 27 0 25 -15
-4 -47 -23 -24 -25 -25 -47 -9 -33 23 -90 20 -130 -7 -25 -16 -37 -35 -47 -71
-12 -44 -12 -53 4 -88 10 -22 34 -51 53 -64 35 -23 91 -33 91 -15 0 12 87 8
100 -5 20 -20 -41 -61 -104 -68 -70 -9 -120 6 -164 48 -43 40 -59 74 -67 140
-13 105 57 199 160 217 60 10 63 10 70 -1z m485 -16 c42 -19 62 -34 70 -54 7
-16 18 -31 26 -34 14 -5 15 -10 17 -101 2 -72 -25 -123 -83 -162 -91 -60 -185
-54 -263 16 -48 44 -67 85 -67 148 0 47 26 133 40 133 4 0 18 11 31 25 13 13
33 25 45 25 11 0 29 7 40 15 29 22 80 18 144 -11z m685 16 c25 -5 52 -22 71
-42 30 -33 30 -34 29 -146 -1 -101 1 -115 18 -123 14 -8 17 -19 15 -47 -2 -30
-7 -38 -27 -40 -13 -2 -36 5 -51 16 l-27 20 -20 -20 c-28 -27 -125 -36 -175
-15 -47 20 -78 69 -78 124 0 35 6 48 35 78 37 37 46 39 175 40 43 0 45 1 48
32 3 27 -2 34 -27 47 -39 21 -72 20 -116 -1 -39 -19 -67 -11 -73 21 -10 47
106 79 203 56z m772 -12 c37 -18 91 -90 99 -134 5 -26 2 -40 -12 -55 -16 -17
-30 -20 -99 -19 -183 3 -185 3 -185 -25 0 -14 4 -25 8 -25 4 0 16 -13 25 -30
17 -27 23 -30 71 -30 39 0 58 5 74 20 16 15 29 19 49 14 43 -10 45 -13 26 -46
-21 -35 -88 -68 -139 -68 -72 0 -152 53 -180 119 -22 52 -19 163 6 191 11 13
20 27 20 32 0 13 39 46 75 64 35 17 119 13 162 -8z m-4554 5 c-7 -2 -19 -2
-25 0 -7 3 -2 5 12 5 14 0 19 -2 13 -5z m0 -20 c31 -6 29 -1 32 -80 2 -42 -1
-63 -9 -63 -8 0 -8 -2 0 -8 7 -4 11 -44 10 -112 l-1 -105 -33 2 c-18 0 -36 4
-39 7 -3 3 -7 72 -8 153 -2 174 -1 163 -20 163 -10 0 -15 10 -15 31 0 29 2 31
28 25 15 -4 39 -10 55 -13z m2677 -283 c0 -5 -4 -10 -10 -10 -5 0 -10 5 -10
10 0 6 5 10 10 10 6 0 10 -4 10 -10z"/>
<path d="M3723 10112 l-1213 -2 0 -238 c2 -1866 -7 -6403 -12 -6408 -4 -3 -3
-16 1 -28 4 -11 6 -92 5 -178 l-2 -156 27 -8 c40 -11 141 -12 141 -1 0 5 15 6
38 2 20 -4 109 -6 197 -6 218 3 226 2 242 -10 9 -8 13 -8 13 0 0 6 5 11 11 11
5 0 7 -4 4 -10 -8 -13 48 -9 58 5 5 6 13 3 24 -10 10 -13 14 -15 10 -4 -4 13
3 16 41 16 26 0 52 -3 57 -7 6 -4 21 -5 35 -2 14 2 104 5 200 6 96 1 183 5
192 10 9 4 25 3 35 -2 10 -5 51 -8 91 -5 40 3 78 0 85 -5 7 -5 23 -12 37 -14
14 -3 34 -9 44 -13 14 -6 17 -5 12 3 -4 6 -21 16 -39 21 l-32 9 30 2 c17 1 35
1 40 0 26 -8 113 -15 110 -10 -5 8 312 13 440 6 28 -1 57 2 66 6 11 5 21 2 29
-7 8 -10 17 -12 29 -6 18 10 74 7 104 -4 12 -5 17 -3 15 5 -2 8 15 12 55 12
32 0 61 -2 64 -6 3 -3 11 -2 17 3 6 5 36 5 66 1 30 -4 66 -4 80 -1 14 4 115 5
225 4 110 -1 252 -2 315 -2 63 0 169 1 235 1 66 0 134 0 150 0 156 1 248 -1
270 -6 17 -4 24 -3 20 4 -8 13 15 13 72 -1 27 -7 48 -8 52 -3 8 12 834 13 842
1 4 -5 15 -3 26 4 15 9 31 10 62 2 22 -6 41 -7 41 -3 0 8 571 5 712 -2 31 -2
55 -1 53 2 -2 3 19 5 46 6 27 0 49 -3 49 -8 0 -5 5 -6 12 -2 6 4 271 8 588 9
317 1 581 4 587 8 7 5 9 1049 7 3484 -2 1913 -3 3488 -4 3500 l0 23 -2297 2
c-1264 2 -2844 2 -3510 0z m2867 -752 c54 -38 65 -136 25 -216 -25 -49 -96
-134 -112 -134 -5 0 -24 -13 -43 -30 -19 -16 -41 -29 -47 -30 -7 0 -27 -9 -45
-20 -48 -29 -62 -27 -44 8 20 40 27 76 41 232 8 97 29 162 58 179 74 47 112
50 167 11z m-432 -129 c62 -32 77 -55 77 -125 1 -34 -10 -103 -23 -156 -14
-52 -25 -123 -25 -157 0 -35 -2 -63 -6 -63 -14 0 -114 105 -146 153 -33 50
-65 146 -65 195 0 46 32 121 58 139 57 38 78 41 130 14z m-963 -151 c50 -11
115 -29 145 -41 30 -12 64 -24 75 -28 155 -59 356 -209 455 -340 14 -18 34
-45 46 -59 60 -78 174 -304 174 -347 0 -12 5 -26 10 -31 16 -16 59 -222 65
-310 27 -413 -42 -713 -226 -984 -32 -47 -85 -113 -118 -147 -68 -70 -199
-173 -251 -197 -19 -9 -46 -23 -60 -31 -39 -23 -117 -55 -134 -55 -26 0 -26
-17 0 -29 14 -6 67 -20 117 -32 50 -11 96 -24 102 -28 5 -4 57 -23 115 -41 58
-18 119 -38 135 -45 99 -42 213 -69 290 -69 81 1 122 15 218 72 24 15 29 15
37 2 10 -16 -10 -38 -141 -152 -148 -128 -256 -157 -459 -121 -116 21 -287 78
-455 153 -22 10 -51 21 -65 25 -14 4 -59 23 -100 43 -133 61 -209 74 -300 49
-51 -14 -150 -66 -150 -79 0 -4 -5 -8 -11 -8 -6 0 -23 -9 -39 -20 -15 -11 -30
-17 -34 -13 -14 15 -4 41 22 54 15 8 32 20 38 28 11 14 21 20 137 81 37 19 67
38 67 42 0 7 -53 13 -90 10 -56 -5 -343 53 -405 82 -16 8 -61 29 -100 47 -144
67 -320 207 -391 311 -16 23 -38 53 -49 66 -37 43 -117 207 -152 307 -56 166
-75 285 -77 485 -1 169 16 354 35 375 5 5 9 26 9 46 0 21 4 40 9 43 4 3 11 20
15 38 7 35 46 136 70 183 9 17 16 34 16 38 0 4 8 20 18 35 10 15 36 54 57 87
69 106 189 237 255 277 19 12 39 28 43 35 4 7 25 21 45 31 20 11 66 36 102 56
70 41 103 53 220 84 65 17 106 26 220 46 64 12 358 -4 445 -24z m1414 -246
c37 -31 58 -96 42 -131 -6 -13 -11 -32 -11 -41 -1 -44 -147 -161 -220 -177
-19 -4 -39 -11 -45 -15 -13 -10 -125 -22 -125 -14 0 4 11 21 24 39 23 30 76
146 76 169 1 6 9 29 20 51 11 22 20 45 20 50 1 13 53 70 76 84 11 6 40 11 66
11 36 0 54 -6 77 -26z m530 -1258 c0 -349 3 -647 7 -662 37 -168 108 -230 291
-259 92 -14 225 36 298 113 85 90 97 109 104 174 4 35 6 284 5 554 -2 586 3
559 -104 579 -61 11 -70 16 -70 35 0 25 23 36 95 44 33 4 112 14 175 22 63 8
131 16 150 18 19 2 58 6 86 10 l52 8 5 -39 c3 -21 5 -362 5 -759 -1 -690 0
-723 18 -760 21 -43 87 -84 136 -84 17 0 31 -7 35 -16 12 -32 2 -35 -247 -80
-47 -8 -98 -17 -115 -19 -16 -2 -57 -9 -90 -15 -118 -22 -133 -1 -131 182 1
69 -2 137 -5 150 -6 22 -7 22 -14 3 -11 -28 -62 -93 -104 -136 -190 -188 -467
-257 -698 -173 -140 51 -229 171 -259 348 -10 61 -14 221 -16 633 -3 539 -3
552 -24 579 -21 29 -34 35 -126 54 -46 9 -58 15 -58 30 0 26 23 36 105 44 39
4 124 13 190 21 66 8 151 17 189 20 38 3 72 7 74 10 3 3 13 5 23 5 16 0 17
-39 18 -634z m-2289 -1742 c64 -7 180 -54 180 -74 0 -5 15 -16 34 -25 28 -13
44 -35 85 -116 28 -55 51 -111 51 -124 0 -45 17 -34 51 33 37 72 144 189 201
218 18 9 35 20 38 24 10 13 136 58 185 65 52 7 106 7 113 0 2 -2 15 0 28 5 17
7 48 3 110 -16 139 -40 211 -102 260 -223 47 -118 51 -171 52 -723 1 -302 5
-535 11 -565 17 -87 38 -118 104 -153 18 -10 32 -25 32 -36 0 -18 -14 -19
-343 -21 l-343 -1 3 21 c2 12 21 31 48 47 33 18 52 39 70 75 l25 50 3 503 c3
429 1 514 -13 580 -28 139 -96 212 -223 239 -56 12 -73 11 -124 -2 -102 -26
-187 -96 -239 -195 l-34 -65 1 -475 c1 -513 4 -582 28 -628 21 -41 73 -91 102
-98 17 -4 24 -13 24 -30 l0 -24 -344 1 c-339 1 -345 1 -343 21 1 11 15 27 32
35 47 25 83 70 100 126 22 73 22 1028 1 1110 -33 126 -95 190 -217 222 -120
32 -275 -40 -341 -157 -12 -21 -25 -38 -30 -38 -4 0 -8 -7 -8 -15 0 -9 -7 -30
-16 -46 -12 -24 -15 -65 -14 -207 0 -97 1 -217 0 -267 -1 -494 2 -570 26 -619
8 -16 14 -34 14 -41 0 -13 33 -42 76 -67 16 -9 29 -25 29 -35 0 -17 -19 -18
-338 -19 l-338 -1 3 21 c2 13 17 28 40 38 49 23 87 81 97 149 13 80 6 1166 -8
1209 -14 46 -72 105 -127 130 -30 13 -44 25 -44 38 0 24 19 41 45 40 19 0 66
10 160 33 22 5 51 12 65 14 14 2 45 9 70 15 105 25 137 30 153 24 10 -3 17 -1
17 5 0 6 14 11 30 11 l30 0 1 -82 c0 -46 0 -125 -1 -175 -1 -54 3 -93 8 -93 6
0 24 24 41 54 32 58 183 216 206 216 3 0 22 10 43 23 40 25 187 72 200 63 4
-2 14 0 22 5 8 5 29 7 45 5 17 -3 59 -8 95 -12z m2898 -26 c45 -17 82 -34 82
-39 0 -5 6 -9 13 -9 17 0 109 -96 134 -140 11 -19 28 -57 38 -85 9 -27 21 -59
26 -70 28 -63 39 -234 39 -604 0 -393 5 -455 42 -521 30 -55 62 -73 130 -74
56 -1 62 1 88 32 22 27 33 32 50 27 14 -4 19 -12 16 -22 -3 -8 -6 -21 -6 -29
0 -8 -19 -35 -42 -60 -135 -147 -331 -188 -498 -105 -79 40 -160 148 -160 215
0 40 -18 40 -39 -1 -38 -75 -137 -161 -233 -202 -245 -104 -533 -50 -647 122
-41 62 -55 131 -47 237 15 210 97 305 346 400 47 18 99 39 117 46 17 8 38 11
46 8 8 -3 18 -1 21 4 3 6 50 20 103 32 54 12 114 28 133 36 19 7 53 16 75 20
22 4 56 13 75 21 l35 13 -3 158 c-5 257 -36 374 -129 473 -52 55 -111 79 -197
79 -107 0 -232 -61 -277 -134 l-18 -30 59 -28 c46 -22 66 -39 85 -72 55 -94
25 -206 -70 -258 -54 -30 -89 -34 -150 -17 -72 20 -135 106 -135 185 0 57 69
172 137 231 90 76 111 93 118 93 4 0 19 8 33 18 15 10 54 28 87 40 169 59 374
63 523 10z"/>
<path d="M4770 9040 c-142 -25 -228 -76 -306 -181 -43 -59 -94 -156 -94 -179
0 -11 -4 -21 -9 -24 -5 -3 -16 -41 -26 -83 -9 -43 -23 -103 -30 -133 -13 -54
-28 -182 -41 -370 -4 -52 -7 -206 -6 -341 1 -766 112 -1094 407 -1208 84 -33
311 -42 412 -16 73 18 135 47 169 76 11 11 24 19 28 19 9 0 56 47 56 56 0 4 9
17 19 28 41 44 111 210 111 261 0 13 4 26 9 29 5 3 12 31 16 63 4 31 11 66 15
78 17 45 39 391 38 615 0 417 -40 776 -102 925 -14 33 -26 66 -26 74 0 28 -91
161 -138 202 -59 52 -98 71 -192 97 -79 22 -222 27 -310 12z"/>
<path d="M4075 4890 c-3 -5 -1 -10 4 -10 6 0 11 5 11 10 0 6 -2 10 -4 10 -3 0
-8 -4 -11 -10z"/>
<path d="M3998 4873 c7 -3 16 -2 19 1 4 3 -2 6 -13 5 -11 0 -14 -3 -6 -6z"/>
<path d="M3858 4703 c7 -3 16 -2 19 1 4 3 -2 6 -13 5 -11 0 -14 -3 -6 -6z"/>
<path d="M4145 4580 c3 -5 8 -10 11 -10 2 0 4 5 4 10 0 6 -5 10 -11 10 -5 0
-7 -4 -4 -10z"/>
<path d="M3858 4273 c6 -2 18 -2 25 0 6 3 1 5 -13 5 -14 0 -19 -2 -12 -5z"/>
<path d="M3860 4231 c0 -5 5 -13 10 -16 6 -3 10 -2 10 4 0 5 -4 13 -10 16 -5
3 -10 2 -10 -4z"/>
<path d="M3948 4223 c7 -3 16 -2 19 1 4 3 -2 6 -13 5 -11 0 -14 -3 -6 -6z"/>
<path d="M7600 4975 c-77 -23 -112 -37 -208 -83 -91 -44 -192 -122 -192 -149
0 -7 -4 -13 -8 -13 -4 0 -19 -21 -31 -47 -45 -90 -38 -239 14 -319 27 -42 119
-95 179 -103 60 -8 186 12 186 30 0 5 11 14 25 19 36 14 115 125 116 164 1 35
1 296 0 429 -1 98 1 96 -81 72z"/>
<path d="M2690 3080 c0 -6 7 -10 15 -10 8 0 15 2 15 4 0 2 -7 6 -15 10 -8 3
-15 1 -15 -4z"/>
<path d="M4618 3053 c6 -2 18 -2 25 0 6 3 1 5 -13 5 -14 0 -19 -2 -12 -5z"/>
<path d="M5798 2128 c5 -5 16 -8 23 -6 8 3 3 7 -10 11 -17 4 -21 3 -13 -5z"/>
<path d="M6210 1850 c0 -6 7 -10 15 -10 8 0 15 2 15 4 0 2 -7 6 -15 10 -8 3
-15 1 -15 -4z"/>
<path d="M2557 2353 c-4 -3 -7 -11 -7 -17 0 -6 5 -5 12 2 6 6 9 14 7 17 -3 3
-9 2 -12 -2z"/>
<path d="M2674 2329 c-149 -46 -209 -215 -130 -368 15 -28 15 -35 4 -42 -9 -6
-2 -9 20 -9 17 0 32 -4 32 -9 0 -5 19 -17 43 -27 31 -13 37 -18 23 -22 -10 -2
-22 2 -27 10 -6 9 -9 6 -9 -11 0 -20 4 -22 25 -17 14 4 34 2 45 -4 14 -7 22
-6 33 5 8 8 17 11 21 8 9 -10 66 -11 60 -1 -3 4 4 8 16 8 14 0 20 5 18 17 -3
19 19 25 39 11 6 -5 23 -6 37 -2 22 5 23 8 11 20 -18 19 -36 18 -29 -1 4 -8 2
-15 -4 -15 -22 0 -18 26 7 47 14 13 29 23 32 23 4 0 10 16 13 35 4 19 13 46
20 60 12 23 15 24 29 11 9 -9 23 -13 32 -10 19 8 15 28 -6 30 -43 3 -50 5 -46
12 6 9 -14 85 -35 132 -16 37 -89 110 -111 111 -6 0 -33 4 -59 8 -34 6 -62 3
-104 -10z"/>
<path d="M2545 2310 c-3 -5 1 -10 9 -10 9 0 16 5 16 10 0 6 -4 10 -9 10 -6 0
-13 -4 -16 -10z"/>
<path d="M2505 2290 c3 -5 21 -10 38 -9 27 0 29 2 12 9 -28 12 -57 12 -50 0z"/>
<path d="M2490 2239 c0 -5 9 -9 20 -9 11 0 20 2 20 4 0 2 -9 6 -20 9 -11 3
-20 1 -20 -4z"/>
<path d="M2440 2111 c0 -12 39 -21 45 -11 3 4 -2 11 -11 14 -22 8 -34 7 -34
-3z"/>
<path d="M2455 2070 c3 -5 13 -10 21 -10 8 0 12 5 9 10 -3 6 -13 10 -21 10 -8
0 -12 -4 -9 -10z"/>
<path d="M2480 2030 c20 -13 33 -13 25 0 -3 6 -14 10 -23 10 -15 0 -15 -2 -2
-10z"/>
<path d="M2980 1992 c0 -4 9 -8 20 -9 11 -1 20 2 20 8 0 5 -9 9 -20 9 -11 0
-20 -4 -20 -8z"/>
<path d="M2965 1950 c3 -5 11 -10 16 -10 6 0 7 5 4 10 -3 6 -11 10 -16 10 -6
0 -7 -4 -4 -10z"/>
<path d="M3230 2076 c0 -9 30 -14 35 -6 4 6 -3 10 -14 10 -12 0 -21 -2 -21 -4z"/>
<path d="M3240 2000 c-12 -8 -11 -10 8 -10 12 0 22 5 22 10 0 13 -11 13 -30 0z"/>
<path d="M3608 2102 c-19 -15 -33 -33 -30 -40 2 -8 -6 -16 -18 -19 l-23 -6 24
-19 24 -19 -25 7 c-20 5 -17 -1 19 -32 46 -40 113 -72 105 -50 -5 14 5 28 31
42 29 16 42 77 24 110 -12 24 -62 54 -87 54 -5 0 -25 -12 -44 -28z"/>
<path d="M3562 1936 c7 -8 15 -12 17 -11 5 6 -10 25 -20 25 -5 0 -4 -6 3 -14z"/>
<path d="M3790 1670 c0 -5 5 -10 11 -10 5 0 7 5 4 10 -3 6 -8 10 -11 10 -2 0
-4 -4 -4 -10z"/>
<path d="M4240 1990 c0 -5 7 -10 15 -10 8 0 15 5 15 10 0 6 -7 10 -15 10 -8 0
-15 -4 -15 -10z"/>
<path d="M4103 1973 c-49 -3 -63 -8 -68 -22 -5 -16 -28 -32 -65 -44 -8 -3 0
-6 18 -6 17 -1 32 -5 32 -11 0 -5 -8 -7 -17 -3 -14 4 -15 3 -7 -6 6 -7 19 -14
28 -15 10 -1 21 -7 24 -12 9 -13 123 -13 115 -1 -4 6 1 8 11 4 11 -4 15 -3 10
4 -3 6 2 20 13 32 10 12 18 36 18 52 0 34 -3 34 -112 28z"/>
<path d="M4238 1913 c7 -3 16 -2 19 1 4 3 -2 6 -13 5 -11 0 -14 -3 -6 -6z"/>
<path d="M4035 1820 c25 -13 49 -19 64 -15 23 6 23 7 6 23 -12 12 -19 13 -22
5 -2 -7 -10 -10 -16 -8 -7 2 -25 6 -42 9 -27 5 -26 4 10 -14z"/>
<path d="M4480 1971 c0 -5 7 -11 14 -14 10 -4 13 -1 9 9 -6 15 -23 19 -23 5z"/>
<path d="M4735 1940 c3 -5 11 -10 16 -10 6 0 7 5 4 10 -3 6 -11 10 -16 10 -6
0 -7 -4 -4 -10z"/>
<path d="M5200 2129 c0 -5 5 -7 10 -4 6 3 10 8 10 11 0 2 -4 4 -10 4 -5 0 -10
-5 -10 -11z"/>
<path d="M5165 1940 c3 -5 8 -10 11 -10 2 0 4 5 4 10 0 6 -5 10 -11 10 -5 0
-7 -4 -4 -10z"/>
<path d="M7015 2108 c-80 -44 -93 -140 -28 -224 23 -31 27 -32 79 -29 30 2 52
0 50 -4 -3 -4 4 -8 15 -8 16 -2 17 1 9 18 -8 15 -7 19 5 19 8 0 15 7 15 16 0
11 6 14 23 9 16 -5 18 -4 8 3 -12 9 -12 15 -1 42 21 51 -12 129 -67 159 -27
14 -82 14 -108 -1z"/>
<path d="M7055 1820 c-3 -5 -1 -10 4 -10 6 0 11 5 11 10 0 6 -2 10 -4 10 -3 0
-8 -4 -11 -10z"/>
<path d="M7585 1830 c-3 -5 1 -10 10 -10 9 0 13 5 10 10 -3 6 -8 10 -10 10 -2
0 -7 -4 -10 -10z"/>
<path d="M7898 2085 c-21 -18 -38 -42 -39 -52 0 -10 -2 -27 -4 -38 -2 -11 3
-33 11 -49 7 -16 14 -35 14 -43 0 -7 5 -13 10 -13 6 0 10 -6 10 -14 0 -24 87
-27 129 -4 56 31 71 55 71 118 0 46 -4 60 -26 83 -54 58 -121 63 -176 12z"/>
<path d="M8608 1953 c-36 -42 -27 -75 27 -97 32 -14 114 -11 100 2 -3 3 4 15
15 27 11 11 23 35 26 53 l7 32 -80 0 c-64 0 -83 -4 -95 -17z"/>
<path d="M9387 2109 c-40 -21 -56 -44 -41 -59 12 -11 148 -23 174 -15 32 10
24 42 -17 70 -45 30 -66 31 -116 4z"/>
<path d="M4966 1917 c3 -10 9 -15 12 -12 3 3 0 11 -7 18 -10 9 -11 8 -5 -6z"/>
</g>
</svg>
